<svg xmlns="http://www.w3.org/2000/svg" width="81" height="72" viewBox="0 0 81 72">
    <g fill="#ACACAC" stroke="#ACACAC">
        <path d="M79.15 28.38L41.227.406c-.731-.54-1.725-.54-2.456 0L.851 28.38c-.926.683-1.128 1.993-.45 2.927.679.933 1.98 1.135 2.906.452L40 4.69l36.693 27.07c.37.273.8.405 1.226.405.64 0 1.272-.297 1.68-.857.678-.934.476-2.244-.45-2.927z" transform="translate(.437)"/>
        <path d="M68.866 32.165c-1.139 0-2.062.937-2.062 2.093v33.309H50.31V49.385c0-5.77-4.625-10.464-10.31-10.464-5.685 0-10.31 4.694-10.31 10.464v18.182H13.196v-33.31c0-1.155-.923-2.092-2.062-2.092-1.139 0-2.062.937-2.062 2.093V69.66c0 1.156.923 2.093 2.062 2.093h20.618c1.084 0 1.972-.85 2.054-1.93.005-.049.008-.103.008-.163V49.385c0-3.462 2.775-6.279 6.186-6.279s6.186 2.817 6.186 6.279V69.66c0 .06.003.113.008.161.081 1.08.97 1.932 2.054 1.932h20.618c1.139 0 2.062-.937 2.062-2.093V34.258c0-1.156-.923-2.093-2.062-2.093z" transform="translate(.437)"/>
    </g>
</svg>
